HIERARCHY
ROOT root
{
	OFFSET	0	13.1	24.9
	CHANNELS 6  Xposition Yposition Zposition Xrotation Yrotation Zrotation
	JOINT spine_1
	{
		OFFSET	0	9.99999	0
		CHANNELS 3  Xrotation Yrotation Zrotation
		JOINT spine_2
		{
			OFFSET	0	112	-10
			CHANNELS 3  Xrotation Yrotation Zrotation
			JOINT spine_3
			{
				OFFSET	0	206.5	19.3
				CHANNELS 3  Xrotation Yrotation Zrotation
				JOINT spine_4
				{
					OFFSET	0	110.4	14.6
					CHANNELS 3  Xrotation Yrotation Zrotation
					JOINT neck_1
					{
						OFFSET	0	71.8	-50.3
						CHANNELS 3  Xrotation Yrotation Zrotation
						JOINT neck_2
						{
							OFFSET	0	86.2	-25.8
							CHANNELS 3  Xrotation Yrotation Zrotation
							JOINT head_ee
							{
								OFFSET	0	179.8	-8.7
								CHANNELS 3  Xrotation Yrotation Zrotation
								End Site
								{
									OFFSET	1	0	0
								}
							}
						}
					}
					JOINT left_clavicle
					{
						OFFSET	-43.2	22.4	-70.8
						CHANNELS 3  Xrotation Yrotation Zrotation
						JOINT left_shoulder
						{
							OFFSET	-93.9	-5.79999	48.7
							CHANNELS 3  Xrotation Yrotation Zrotation
							JOINT left_elbow
							{
								OFFSET	-291.4	-30.8	15.2
								CHANNELS 3  Xrotation Yrotation Zrotation
								JOINT left_lowarm_twist
								{
									OFFSET	-110.7	-3.89999	13.6
									CHANNELS 3  Xrotation Yrotation Zrotation
									JOINT left_hand
									{
										OFFSET	-110.7	-3.89999	13.6
										CHANNELS 3  Xrotation Yrotation Zrotation
										JOINT left_ee
										{
											OFFSET	-80.8	-5.10001	12.1
											CHANNELS 3  Xrotation Yrotation Zrotation
											End Site
											{
												OFFSET	1	0	0
											}
										}
									}
								}
							}
						}
					}
					JOINT right_clavicle
					{
						OFFSET	43.2	22.4	-70.8
						CHANNELS 3  Xrotation Yrotation Zrotation
						JOINT right_shoulder
						{
							OFFSET	93.9	-5.79999	48.7
							CHANNELS 3  Xrotation Yrotation Zrotation
							JOINT right_elbow
							{
								OFFSET	291.4	-30.8	15.2
								CHANNELS 3  Xrotation Yrotation Zrotation
								JOINT right_lowarm_twist
								{
									OFFSET	110.7	-3.89999	13.6
									CHANNELS 3  Xrotation Yrotation Zrotation
									JOINT right_hand
									{
										OFFSET	110.7	-3.89999	13.6
										CHANNELS 3  Xrotation Yrotation Zrotation
										JOINT right_ee
										{
											OFFSET	80.8	-5.10001	12.1
											CHANNELS 3  Xrotation Yrotation Zrotation
											End Site
											{
												OFFSET	1	0	0
											}
										}
									}
								}
							}
						}
					}
				}
			}
		}
	}
	JOINT left_hip
	{
		OFFSET	-82.8	-127.5	0.300001
		CHANNELS 3  Xrotation Yrotation Zrotation
		JOINT left_knee
		{
			OFFSET	-28.2	-396.7	2.2
			CHANNELS 3  Xrotation Yrotation Zrotation
			JOINT left_ankle
			{
				OFFSET	-11.7	-411.3	35.4
				CHANNELS 3  Xrotation Yrotation Zrotation
				JOINT left_toes
				{
					OFFSET	0	-60	-88.6
					CHANNELS 3  Xrotation Yrotation Zrotation
					JOINT left_foot_ee
					{
						OFFSET	-22.5	-16.5	-42.2
						CHANNELS 3  Xrotation Yrotation Zrotation
						End Site
						{
							OFFSET	1	0	0
						}
					}
				}
			}
		}
	}
	JOINT right_hip
	{
		OFFSET	82.8	-127.5	0.300001
		CHANNELS 3  Xrotation Yrotation Zrotation
		JOINT right_knee
		{
			OFFSET	28.2	-396.7	2.2
			CHANNELS 3  Xrotation Yrotation Zrotation
			JOINT right_ankle
			{
				OFFSET	11.7	-411.3	35.4
				CHANNELS 3  Xrotation Yrotation Zrotation
				JOINT right_toes
				{
					OFFSET	0	-60	-88.6
					CHANNELS 3  Xrotation Yrotation Zrotation
					JOINT right_foot_ee
					{
						OFFSET	22.5	-16.5	-42.2
						CHANNELS 3  Xrotation Yrotation Zrotation
						End Site
						{
							OFFSET	1	0	0
						}
					}
				}
			}
		}
	}
}
MOTION
Frames: 15
Frame Time: 0.02
3574.42 741.953 -1474.73 -4.8972 65.0851 7.02209 2.36678 0.168027 -0.0847532 2.36676 0.17308 -0.0738894 2.36654 0.183105 -0.0434593 2.36658 0.173944 -0.071832 -20.1026 -2.33119 1.53129 -20.1368 -5.26982 0.445338 -0.0 0.0 -0.0 0.622552 12.9662 2.55868 -4.98168 -24.1512 65.6442 2.88955 -55.0505 1.50606 -37.1224 -2.65045 3.84642 -2.15631 28.3529 -0.610715 -0.0 0.0 -0.0 4.48236 25.1571 -6.82368 -34.1288 12.4642 -69.4564 1.10622 28.7214 -0.283227 4.60944 -0.139448 0.572104 2.13677 -28.7424 -23.4811 0.0 0.0 0.0 -1.80804 -20.643 2.95453 -2.84394 0.106604 0.42339 29.1709 14.5155 -3.83866 2.09233 -0.0 -0.0 -0.0 0.0 -0.0 11.7211 27.1029 -1.85567 -3.254 -0.120234 -0.484846 0.719795 -21.4988 0.107968 28.4921 -0.0 -0.0 0.0 0.0 0.0 
3568.26 743.904 -1481.32 -5.85278 65.569 7.77329 2.37201 0.191106 -0.0523034 2.37199 0.194047 -0.0400368 2.37186 0.198026 -0.00655917 2.37191 0.194504 -0.0377514 -21.1994 -2.45145 1.08613 -21.2401 -5.25872 -0.0673667 -0.0 0.0 -0.0 0.710553 12.4747 2.65557 -6.42209 -23.9827 65.7391 2.91724 -55.3065 1.52879 -37.379 -2.67683 3.86613 -1.90117 26.5925 -0.072063 -0.0 0.0 -0.0 5.15476 25.0643 -8.29453 -34.8792 13.4511 -68.6204 0.991095 26.1486 -0.230172 5.2633 -0.155484 0.65409 2.35634 -27.6038 -24.5762 0.0 0.0 0.0 -1.94755 -20.3815 2.74833 -1.93339 0.0747643 0.287276 24.8191 13.3522 -3.33223 1.44668 -0.0 -0.0 -0.0 0.0 -0.0 11.7724 27.3524 -1.80838 -3.90265 -0.140895 -0.58225 -0.175397 -19.2789 -0.0261467 30.115 -0.0 -0.0 0.0 0.0 0.0 
3558.51 745.477 -1488.33 -8.03934 66.5618 9.86293 2.64207 0.104947 -0.0163931 2.64207 0.105777 -0.00968184 2.64205 0.105926 0.00789193 2.64207 0.105843 -0.00893616 -19.6324 -1.50325 -0.733278 -19.6394 -2.51997 -1.29847 -0.0 0.0 -0.0 1.01049 12.6672 3.17237 -7.93461 -23.6354 65.0707 2.67972 -52.9992 1.33622 -36.8781 -2.62544 3.82755 -1.68302 26.6375 1.1531 -0.0 0.0 -0.0 5.67261 23.8434 -9.54199 -35.1755 13.2067 -67.8995 0.849319 22.8176 -0.171392 5.26027 -0.155412 0.653709 2.31147 -26.598 -24.0816 0.0 0.0 0.0 -2.65073 -21.6173 2.5259 -0.769181 0.0309069 0.113993 23.1211 12.7482 -3.12656 1.90552 -0.0 -0.0 -0.0 0.0 -0.0 11.883 27.5543 -1.79268 -4.26145 -0.15185 -0.636226 -1.56483 -19.4194 -0.234083 33.203 -0.0 -0.0 0.0 0.0 0.0 
3554.27 742.588 -1496.07 -8.66217 66.1274 10.3032 2.64633 0.0873629 -0.00392814 2.64632 0.0874358 0.00163895 2.64632 0.08597 0.0160271 2.64633 0.0874223 0.00224856 -17.7885 0.170336 -1.25764 -17.7854 1.0149 -1.11049 -0.0 0.0 -0.0 0.68422 12.4159 2.6059 -9.47217 -23.7953 65.0117 2.92646 -55.3909 1.53637 -36.5042 -2.58729 3.79845 -1.37533 26.2269 2.67036 -0.0 0.0 -0.0 5.64123 24.2615 -9.43301 -35.4817 13.4998 -68.1087 0.867892 23.264 -0.178661 6.27252 -0.178394 0.780972 2.47509 -25.7456 -24.9182 0.0 0.0 0.0 -2.42856 -21.9373 2.31687 -2.05133 0.0790101 0.304878 23.3492 12.6688 -3.15349 2.69769 -0.0 -0.0 -0.0 0.0 -0.0 11.8348 27.5772 -2.08299 -3.7874 -0.137305 -0.564927 0.264289 -20.1146 0.0394738 34.3725 -0.0 -0.0 0.0 0.0 0.0 
3546.89 741.241 -1501.35 -8.93752 66.5231 10.3819 2.71803 0.14736 -0.0328381 2.71802 0.149151 -0.0233946 2.71796 0.150969 0.00131861 2.71799 0.149283 -0.0225407 -18.7152 -0.134386 -2.56869 -18.6984 1.10407 -2.44645 -0.0 0.0 -0.0 0.831315 13.0143 2.90818 -9.93634 -23.2107 65.762 2.696 -53.1658 1.34924 -35.8903 -2.52508 3.75015 -1.50512 25.9798 1.83825 -0.0 0.0 -0.0 5.72871 24.0491 -9.64426 -34.9425 13.5226 -67.7665 0.795543 21.5087 -0.151104 5.71351 -0.16598 0.710642 2.48978 -25.3478 -24.9234 0.0 0.0 0.0 -2.53678 -22.3641 1.99176 -2.36393 0.0900885 0.351573 20.328 12.2855 -2.78266 2.08033 -0.0 -0.0 -0.0 0.0 -0.0 11.5912 28.3578 -1.97118 -4.61889 -0.162426 -0.690061 0.371667 -19.0982 0.0553032 36.0615 -0.0 -0.0 0.0 0.0 0.0 
3539.82 740.609 -1509.14 -8.77761 65.8775 9.93527 2.72202 0.165656 -0.0319917 2.72201 0.167356 -0.0213857 2.72195 0.168601 0.00626672 2.72199 0.167474 -0.0204393 -18.2188 3.19713 -3.37768 -18.2666 7.97149 -1.91467 -0.0 0.0 -0.0 0.792977 12.4414 2.78952 -11.8632 -22.8514 65.4563 2.5103 -51.1869 1.20253 -35.5259 -2.4884 3.72116 -1.3564 26.1311 2.73312 -0.0 0.0 -0.0 6.06157 24.8173 -10.2947 -32.9045 13.6668 -67.7014 0.687428 18.8054 -0.113837 5.29176 -0.15616 0.657662 2.52726 -27.577 -25.6302 0.0 0.0 0.0 -2.54375 -22.3647 2.00021 -3.96011 0.142672 0.590889 20.6343 11.0157 -2.81568 1.35809 -0.0 -0.0 -0.0 0.0 -0.0 11.0523 27.0067 -1.7281 -4.79882 -0.167623 -0.717186 1.21225 -15.7243 0.178348 38.3826 -0.0 -0.0 0.0 0.0 0.0 
3532.95 740.455 -1515.3 -10.4549 65.5813 11.6651 2.77196 0.188545 0.0555938 2.77194 0.184626 0.0674788 2.77217 0.171192 0.0966085 2.7722 0.184301 0.0683594 -18.1171 1.16455 -3.1084 -18.1094 3.92173 -2.4546 -0.0 0.0 -0.0 0.662143 14.1716 2.74361 -12.9319 -22.7073 65.275 2.55816 -51.7139 1.23996 -36.3793 -2.5746 3.78868 -1.3871 25.9569 2.48511 -0.0 0.0 -0.0 6.55899 23.9788 -11.4628 -32.5147 13.43 -66.699 0.651094 17.8763 -0.102404 5.43668 -0.159578 0.675859 2.41887 -26.1658 -24.6564 0.0 0.0 0.0 -2.17805 -22.4213 2.16736 -3.13024 0.116167 0.466287 18.9028 12.7342 -2.6058 0.855502 -0.0 -0.0 -0.0 0.0 -0.0 11.4689 27.7776 -2.27594 -5.57242 -0.188993 -0.833984 2.05135 -16.0615 0.301414 37.3083 -0.0 -0.0 0.0 0.0 0.0 
3526.5 737.095 -1524.57 -9.33655 65.1046 10.9227 2.83168 0.236344 0.0656025 2.83165 0.231691 0.0805088 2.83199 0.215634 0.116895 2.83205 0.231389 0.0813721 -17.4603 3.29518 -2.86711 -17.5101 7.91515 -1.44946 -0.0 0.0 -0.0 0.580947 14.3917 2.63404 -14.0524 -22.7702 65.2097 2.2841 -48.523 1.02957 -35.2513 -2.46087 3.69916 -1.19372 26.7393 3.90006 -0.0 0.0 -0.0 6.73478 23.6363 -11.8799 -31.2636 13.6319 -66.8904 0.601692 16.5974 -0.087764 5.52928 -0.161739 0.68749 2.46273 -26.3544 -24.9726 0.0 0.0 0.0 -3.01396 -22.5023 1.06126 -4.14165 0.14823 0.618196 19.2566 12.6995 -2.65034 1.77863 -0.0 -0.0 -0.0 0.0 -0.0 10.7615 27.7684 -3.23539 -5.7167 -0.192804 -0.855798 4.3817 -14.5949 0.637885 40.0115 -0.0 -0.0 0.0 0.0 0.0 
3523.23 737.593 -1532.09 -9.79226 64.4529 10.7755 2.7731 0.260214 0.0886604 2.77306 0.254045 0.105039 2.77354 0.233583 0.144953 2.7736 0.253544 0.106244 -16.105 5.5246 -3.21196 -16.2318 12.4356 -1.07002 -0.0 0.0 -0.0 0.526154 15.0915 2.61659 -15.088 -23.7311 65.1805 2.11992 -46.3954 0.908582 -35.1387 -2.44963 3.69011 -1.13372 27.7745 4.67196 -0.0 0.0 -0.0 6.76158 23.4215 -11.9587 -28.6822 12.9959 -66.4412 0.607594 16.7511 -0.0894575 5.93124 -0.170897 0.738021 2.54226 -27.861 -25.7801 0.0 0.0 0.0 -1.96642 -21.6804 1.93269 -4.91603 0.170962 0.734864 20.4097 14.8745 -2.80717 1.25391 -0.0 -0.0 -0.0 0.0 -0.0 10.3689 27.6173 -3.48426 -5.20271 -0.178977 -0.77813 6.95046 -16.4221 1.00858 40.1327 -0.0 -0.0 0.0 0.0 0.0 
3513.43 736.088 -1537.76 -8.68501 63.9798 9.11242 2.70641 0.258936 0.115237 2.70639 0.251079 0.131481 2.70697 0.226157 0.170823 2.70702 0.250297 0.132962 -16.2676 7.0856 -3.55927 -16.4852 15.6193 -0.806095 -0.0 0.0 -0.0 0.265755 15.5518 2.24996 -16.5398 -24.8138 65.5617 1.92097 -43.5745 0.767899 -33.579 -2.2956 3.56241 -1.00009 28.5225 5.71229 -0.0 0.0 -0.0 6.83918 23.15 -12.1538 -26.8847 13.1807 -65.9212 0.56295 15.5823 -0.0770265 6.18527 -0.176502 0.769987 2.6076 -27.6429 -26.1453 0.0 0.0 0.0 -1.17968 -19.4837 2.78546 -6.70576 0.217448 1.00558 20.0787 14.593 -2.76388 1.8884 -0.0 -0.0 -0.0 0.0 -0.0 9.61014 24.9821 -3.58297 -3.51475 -0.128672 -0.523974 7.32373 -17.3882 1.06435 40.0796 -0.0 -0.0 0.0 0.0 0.0 
3497.97 734.266 -1550.6 -7.73046 64.046 8.23833 2.74705 0.36526 0.131624 2.74699 0.356144 0.1546 2.74798 0.32617 0.210602 2.74809 0.355337 0.156446 -14.6922 8.84365 -3.3626 -14.9687 18.9055 -0.234303 -0.0 0.0 -0.0 0.296097 15.8943 2.33468 -17.7032 -24.6597 65.5266 1.48016 -36.2475 0.484493 -33.6166 -2.29928 3.56554 -1.18195 28.6519 4.78263 -0.0 0.0 -0.0 7.27526 22.3983 -13.1773 -25.0899 13.1144 -66.4904 0.627168 17.2591 -0.0951822 6.01523 -0.172766 0.748586 2.60802 -28.0659 -26.2296 0.0 0.0 0.0 -1.01578 -21.3884 2.96353 -9.85532 0.278635 1.48495 21.9517 15.0768 -2.99973 0.930637 -0.0 -0.0 -0.0 0.0 -0.0 9.16427 25.966 -5.2292 -5.66948 -0.191563 -0.848658 13.43 -14.4777 1.89864 40.2699 -0.0 -0.0 0.0 0.0 0.0 
3491.53 731.965 -1560.97 -7.10882 64.4424 7.57665 2.73184 0.442361 0.100621 2.73174 0.435062 0.128567 2.73275 0.408225 0.197893 2.73296 0.434355 0.130937 -14.8736 11.1802 -2.63286 -15.3311 22.9331 1.32461 -0.0 0.0 -0.0 0.00866019 16.2967 1.92703 -18.7668 -24.8238 65.5841 1.20949 -30.9266 0.3346 -33.0932 -2.24835 3.52179 -1.17341 28.8075 4.89486 -0.0 0.0 -0.0 7.75842 22.8542 -14.1977 -23.1495 13.3223 -66.8199 0.665784 18.2531 -0.106959 6.13323 -0.175365 0.763436 2.66789 -28.3897 -26.6641 0.0 0.0 0.0 -0.657965 -20.21 2.54944 -14.0606 0.319101 2.12878 24.125 16.61 -3.27695 1.15795 -0.0 -0.0 -0.0 0.0 -0.0 8.39203 24.9385 -5.43911 -6.15234 -0.203977 -0.921719 16.8336 -14.8324 2.35049 40.0267 -0.0 -0.0 0.0 0.0 0.0 
3483.53 735.028 -1569.66 -5.7947 64.2123 6.29394 2.79801 0.46192 0.0884928 2.7979 0.455353 0.117707 2.79887 0.430236 0.189996 2.79911 0.454843 0.119663 -16.9528 12.7964 -1.89334 -17.719 25.6174 3.13564 -0.0 0.0 -0.0 -0.502897 16.6686 1.17244 -19.9974 -25.1824 66.0451 1.03012 -27.0342 0.247642 -32.3824 -2.17983 3.46164 -1.12687 28.7256 5.11125 -0.0 0.0 -0.0 8.093 23.1369 -14.909 -19.3379 13.7111 -66.9519 0.756415 20.5412 -0.137065 6.28166 -0.178591 0.782122 2.68235 -28.5795 -26.7891 0.0 0.0 0.0 -0.615253 -17.6611 2.15842 -16.3611 0.321217 2.48172 26.2606 17.4835 -3.53961 1.33195 -0.0 -0.0 -0.0 0.0 -0.0 6.98774 23.1872 -5.3325 -6.33754 -0.208575 -0.949768 20.3393 -15.0838 2.79977 40.2155 -0.0 -0.0 0.0 0.0 0.0 
3475.25 739.722 -1576.69 -1.39806 62.8677 2.16429 2.28954 0.632644 0.123943 2.28933 0.623475 0.16395 2.29117 0.586283 0.268093 2.2916 0.621265 0.172133 -18.3382 13.6981 -2.10118 -19.3636 27.461 3.7066 -0.0 0.0 -0.0 -0.928638 17.1092 0.569924 -21.3047 -25.2956 66.804 0.905467 -24.1579 0.193771 -31.7226 -2.11691 3.40506 -0.96422 28.2423 5.7915 -0.0 0.0 -0.0 8.22156 23.5861 -15.1513 -17.2901 14.0001 -66.9503 0.839933 22.5909 -0.167769 6.39135 -0.180944 0.795937 2.66709 -28.3892 -26.659 0.0 0.0 0.0 -0.173698 -14.7953 1.63672 -18.4945 0.310517 2.80885 27.2039 15.9908 -3.63206 1.43669 -0.0 -0.0 -0.0 0.0 -0.0 5.83562 23.708 -5.51909 -7.76804 -0.24103 -1.16689 21.4532 -13.0659 2.92558 40.0515 -0.0 -0.0 0.0 0.0 0.0 
3469.09 740.546 -1580.56 0.64021 63.788 0.174749 1.96555 0.236314 0.193198 1.96555 0.223541 0.207843 1.96637 0.183348 0.244035 1.96635 0.219587 0.212016 -18.7912 14.8309 -1.01404 -20.0138 29.0654 5.36938 -0.0 0.0 -0.0 -1.59482 17.4574 -0.407193 -21.9504 -25.4423 68.5414 0.834115 -22.4501 0.165541 -30.7316 -2.02364 3.31872 -0.828272 26.9868 6.02402 -0.0 0.0 -0.0 8.60958 27.936 -15.5604 -17.3866 15.4135 -67.3183 0.837909 22.542 -0.166992 6.84612 -0.190418 0.853258 2.71218 -29.7123 -27.173 0.0 0.0 0.0 2.40076 -9.51763 0.222714 -19.171 0.304581 2.91248 30.8004 13.3685 -4.00546 2.69067 -0.0 -0.0 -0.0 0.0 -0.0 4.8553 22.0936 -5.30208 -9.79092 -0.277648 -1.47512 24.4624 -15.4365 3.30629 40.2067 -0.0 -0.0 0.0 0.0 0.0 
